# xmcd
#
# Track frame offsets:
#	182
#	16477
#	35077
#	52807
#	69912
#	81832
#	95060
#	112340
#	128222
#	139102
#	158040
#	167180
#	180592
#	192170
#
# Disc length: 2849 seconds
#
# Revision: 5
# Processed by: cddbd v1.5.2PL0 Copyright (c) Steve Scherf et al.
# Submitted via: EasyCDDAExtractor 9.0.0.1
#
DISCID=c00b1f0e
DTITLE=Pascal DANEL - Best Off
DYEAR=1993
DGENRE=V. Française
TTITLE0=Kilimandgaro
TTITLE1=Tolérance
TTITLE2=Venise
TTITLE3=Le diner de famille
TTITLE4=Le vieux chêne
TTITLE5=La neige en deuil
TTITLE6=Mourir en été
TTITLE7=La plage aux romantiques
TTITLE8=Pour un amour
TTITLE9=La demoiselle aux yeux verts
TTITLE10=Hop la ! Tu as vu
TTITLE11=J'écris ton nom
TTITLE12=Mon fils
TTITLE13=L'enfant et le président (B-O)
EXTD=YEAR: 1993
EXTT0=
EXTT1=
EXTT2=
EXTT3=
EXTT4=
EXTT5=
EXTT6=
EXTT7=
EXTT8=
EXTT9=
EXTT10=
EXTT11=
EXTT12=
EXTT13=
PLAYORDER=
